<svg width="200" height="50" viewBox="0 0 200 50" fill="none" xmlns="http://www.w3.org/2000/svg">
  <path d="M30 10C18.954 10 10 18.954 10 30C10 41.046 18.954 50 30 50C41.046 50 50 41.046 50 30C50 18.954 41.046 10 30 10Z" fill="#2563EB"/>
  <path d="M30 15C21.716 15 15 21.716 15 30C15 38.284 21.716 45 30 45C38.284 45 45 38.284 45 30C45 21.716 38.284 15 30 15ZM30 42C23.373 42 18 36.627 18 30C18 23.373 23.373 18 30 18C36.627 18 42 23.373 42 30C42 36.627 36.627 42 30 42Z" fill="white"/>
  <path d="M30 22C30.5523 22 31 21.5523 31 21C31 20.4477 30.5523 20 30 20C29.4477 20 29 20.4477 29 21C29 21.5523 29.4477 22 30 22Z" fill="white"/>
  <path d="M30 40C30.5523 40 31 39.5523 31 39C31 38.4477 30.5523 38 30 38C29.4477 38 29 38.4477 29 39C29 39.5523 29.4477 40 30 40Z" fill="white"/>
  <path d="M21 30C21 30.5523 20.5523 31 20 31C19.4477 31 19 30.5523 19 30C19 29.4477 19.4477 29 20 29C20.5523 29 21 29.4477 21 30Z" fill="white"/>
  <path d="M41 30C41 30.5523 40.5523 31 40 31C39.4477 31 39 30.5523 39 30C39 29.4477 39.4477 29 40 29C40.5523 29 41 29.4477 41 30Z" fill="white"/>
  <path d="M36.364 23.636C36.7545 24.0265 36.7545 24.6597 36.364 25.0502C35.9734 25.4407 35.3403 25.4407 34.9497 25.0502C34.5592 24.6597 34.5592 24.0265 34.9497 23.636C35.3403 23.2455 35.9734 23.2455 36.364 23.636Z" fill="white"/>
  <path d="M25.0503 34.9497C25.4408 35.3403 25.4408 35.9734 25.0503 36.364C24.6598 36.7545 24.0266 36.7545 23.636 36.364C23.2455 35.9734 23.2455 35.3403 23.636 34.9497C24.0266 34.5592 24.6598 34.5592 25.0503 34.9497Z" fill="white"/>
  <path d="M25.0503 25.0502C24.6598 25.4407 24.0266 25.4407 23.636 25.0502C23.2455 24.6597 23.2455 24.0265 23.636 23.636C24.0266 23.2455 24.6598 23.2455 25.0503 23.636C25.4408 24.0265 25.4408 24.6597 25.0503 25.0502Z" fill="white"/>
  <path d="M36.364 36.364C35.9734 36.7545 35.3403 36.7545 34.9497 36.364C34.5592 35.9734 34.5592 35.3403 34.9497 34.9497C35.3403 34.5592 35.9734 34.5592 36.364 34.9497C36.7545 35.3403 36.7545 35.9734 36.364 36.364Z" fill="white"/>
  <path d="M30 35C32.7614 35 35 32.7614 35 30C35 27.2386 32.7614 25 30 25C27.2386 25 25 27.2386 25 30C25 32.7614 27.2386 35 30 35Z" fill="#2563EB"/>
  <path d="M30 33C31.6569 33 33 31.6569 33 30C33 28.3431 31.6569 27 30 27C28.3431 27 27 28.3431 27 30C27 31.6569 28.3431 33 30 33Z" fill="white"/>
  <path d="M65 20H60V40H65V32.5H75V40H80V20H75V27.5H65V20Z" fill="#2563EB"/>
  <path d="M85 20V40H100V35H90V32.5H98V27.5H90V25H100V20H85Z" fill="#2563EB"/>
  <path d="M115 40L120 20H115L112.5 32.5L110 20H105L102.5 32.5L100 20H95L100 40H105L107.5 27.5L110 40H115Z" fill="#2563EB"/>
  <path d="M125 20V40H140V35H130V20H125Z" fill="#2563EB"/>
  <path d="M145 20V40H160V35H150V32.5H158V27.5H150V25H160V20H145Z" fill="#2563EB"/>
  <path d="M180 20H175L167.5 27.5V20H162.5V40H167.5V32.5L175 40H180L171.25 30L180 20Z" fill="#2563EB"/>
  <path d="M190 25H195V20H180V25H185V40H190V25Z" fill="#2563EB"/>
</svg> 